<svg  viewBox="0 0 23 27" fill="none" xmlns="http://www.w3.org/2000/svg">
<g clip-path="url(#clip0_28_7107)">
<path d="M20.4371 6.2911C20.4359 6.04368 20.2474 5.87967 19.9972 5.88092L16.8692 5.89652C16.8725 6.5563 16.877 7.46351 16.8777 7.58722C16.8792 7.89649 16.6301 8.12454 16.3385 8.18785C16.026 8.25127 15.7328 8.0053 15.6688 7.71696C15.6685 7.6551 15.6685 7.6551 15.6682 7.59325C15.6673 7.40768 15.6634 6.62419 15.6598 5.90255L7.98593 5.94081C7.98922 6.6006 7.99344 7.44595 7.99436 7.63151C7.99591 7.94079 7.74711 8.23069 7.45517 8.23215C7.14238 8.23371 6.84951 8.0496 6.78552 7.76125C6.78521 7.6994 6.78521 7.6994 6.7849 7.63754C6.78428 7.51383 6.77976 6.60663 6.77647 5.94684L3.64855 5.96244C3.39831 5.96369 3.23242 6.15008 3.23355 6.37688L1.45508 26.0973C1.45631 26.3448 1.64491 26.5294 1.89515 26.5281L21.9764 26.428C22.2266 26.4268 22.4134 26.2403 22.4122 25.9928L20.4371 6.2911Z" fill="black"/>
<path d="M11.9268 1.69435C11.3221 1.69737 11.5098 1.69643 11.3221 1.69737C10.905 1.69945 10.4052 1.82566 9.98906 2.0133C9.32331 2.3259 8.76296 2.86478 8.41175 3.52634C8.22593 3.8984 8.10256 4.24954 8.04216 4.68283C8.04309 4.8684 7.98114 4.99242 7.98197 5.15737C7.9832 5.40479 7.98413 5.59035 7.98526 5.81715C7.9868 6.12643 7.738 6.41633 7.44606 6.41779C7.13327 6.41935 6.84041 6.23524 6.77641 5.94689C6.7761 5.88504 6.7761 5.88504 6.77579 5.82318C6.77456 5.57576 6.77343 5.34896 6.77219 5.10154C6.7689 4.44176 6.95329 3.78104 7.17959 3.16134C7.42746 2.68587 7.71693 2.18958 8.15309 1.83688C8.8174 1.23563 9.54509 0.799003 10.4617 0.608863C10.7533 0.545553 11.0658 0.482138 11.4203 0.480371C11.7331 0.478811 12.025 0.477355 12.3378 0.475795C12.9426 0.47278 13.5062 0.593682 13.987 0.83871C14.5305 1.08343 15.0324 1.36959 15.3887 1.73895C16.0593 2.39541 16.5008 3.11486 16.7347 4.02093C16.7988 4.32989 16.8631 4.68009 16.8647 4.98936C16.8659 5.23678 16.867 5.46358 16.8679 5.64915C16.8695 5.95842 16.6204 6.18647 16.3287 6.24978C16.0371 6.31309 15.7231 6.06723 15.6591 5.77889C15.6588 5.71703 15.6588 5.71703 15.6585 5.65518C15.6572 5.40776 15.6558 5.1191 15.6546 4.87168C15.6522 4.39746 15.5249 3.9651 15.2726 3.55398C14.9566 2.89576 14.4116 2.34177 13.7429 2.05644C13.3666 1.87274 13.0112 1.68895 12.5107 1.69144C12.3439 1.69228 11.9268 1.69435 11.9268 1.69435Z" fill="black"/>
<path d="M11.9273 26.8655C11.2852 26.8687 10.7375 26.6967 10.284 26.3495C9.83058 25.9995 9.48288 25.4913 9.24091 24.8249C8.99894 24.1556 8.87558 23.3466 8.87085 22.3977C8.86615 21.4546 8.98145 20.6486 9.21675 19.9798C9.45489 19.3081 9.79892 18.795 10.2489 18.4405C10.7016 18.0831 11.2462 17.9029 11.8826 17.8997C12.5189 17.8965 13.0638 18.0714 13.5173 18.4242C13.9736 18.7742 14.3227 19.2839 14.5647 19.9531C14.8095 20.6195 14.9343 21.4243 14.939 22.3675C14.9437 23.3163 14.8284 24.1266 14.5931 24.7982C14.3578 25.467 14.0152 25.9787 13.5652 26.3332C13.1153 26.6849 12.5693 26.8623 11.9273 26.8655ZM11.9226 25.928C12.5589 25.9248 13.0517 25.6156 13.4009 25.0002C13.7501 24.3848 13.9219 23.5089 13.9162 22.3726C13.9125 21.6169 13.8283 20.9738 13.6637 20.4434C13.502 19.913 13.2699 19.5093 12.9673 19.2324C12.6677 18.9555 12.3076 18.818 11.8871 18.8201C11.2565 18.8233 10.7651 19.1368 10.4131 19.7607C10.0611 20.3818 9.88791 21.2591 9.89357 22.3926C9.89733 23.1483 9.98008 23.7899 10.1418 24.3175C10.3035 24.8452 10.5342 25.246 10.8339 25.5201C11.1364 25.7941 11.4993 25.9301 11.9226 25.928Z" fill="black"/>
</g>
<defs>
<clipPath id="clip0_28_7107">
<rect width="22" height="26" fill="white" transform="translate(0.7854 0.533447) rotate(-0.285696)"/>
</clipPath>
</defs>
</svg>
