<svg width="22" height="27" viewBox="0 0 22 27" fill="none" xmlns="http://www.w3.org/2000/svg">
<g clip-path="url(#clip0_28_5331)">
<path d="M19.6226 6.81496C19.6226 6.56754 19.4349 6.40259 19.1846 6.40259H16.0567C16.0567 7.06238 16.0567 7.9696 16.0567 8.09331C16.0567 8.40259 15.8064 8.62939 15.5145 8.69125C15.2017 8.7531 14.9098 8.50568 14.8472 8.21702C14.8472 8.15517 14.8472 8.15516 14.8472 8.09331C14.8472 7.90774 14.8472 7.12424 14.8472 6.40259H7.17327C7.17327 7.06238 7.17327 7.90774 7.17327 8.09331C7.17327 8.40259 6.92303 8.69125 6.63109 8.69125C6.3183 8.69125 6.02635 8.50568 5.96379 8.21702C5.96379 8.15517 5.96379 8.15516 5.96379 8.09331C5.96379 7.9696 5.96379 7.06238 5.96379 6.40259H2.83583C2.58559 6.40259 2.41877 6.58815 2.41877 6.81496L0.541992 26.5263C0.541992 26.7737 0.72967 26.9593 0.979907 26.9593H21.0614C21.3117 26.9593 21.4993 26.7737 21.4993 26.5263L19.6226 6.81496Z" />
<path d="M11.1354 2.17572C10.5307 2.17572 10.7184 2.17572 10.5307 2.17572C10.1136 2.17572 9.61316 2.29943 9.19609 2.485C8.5288 2.79428 7.96576 3.33036 7.61126 3.99016C7.42358 4.36129 7.29846 4.71181 7.23591 5.1448C7.23591 5.33036 7.17335 5.45407 7.17335 5.61902C7.17335 5.86645 7.17335 6.05201 7.17335 6.27882C7.17335 6.58809 6.92311 6.87675 6.63117 6.87675C6.31837 6.87675 6.02643 6.69119 5.96387 6.40253C5.96387 6.34067 5.96387 6.34067 5.96387 6.27882C5.96387 6.03139 5.96387 5.80459 5.96387 5.55717C5.96387 4.89737 6.15154 4.23758 6.38093 3.61902C6.63117 3.1448 6.92311 2.64995 7.36102 2.29943C8.02832 1.7015 8.75818 1.26851 9.67572 1.08294C9.96766 1.02108 10.2805 0.959229 10.635 0.959229C10.9478 0.959229 11.2397 0.959229 11.5525 0.959229C12.1572 0.959229 12.7203 1.08294 13.1999 1.33036C13.7421 1.57779 14.2425 1.86644 14.597 2.23758C15.2643 2.89737 15.7023 3.61902 15.9316 4.52624C15.9942 4.83552 16.0568 5.18603 16.0568 5.49531C16.0568 5.74273 16.0568 5.96954 16.0568 6.15511C16.0568 6.46438 15.8065 6.69119 15.5146 6.75304C15.2226 6.8149 14.9098 6.56748 14.8473 6.27882C14.8473 6.21696 14.8473 6.21696 14.8473 6.15511C14.8473 5.90768 14.8473 5.61902 14.8473 5.3716C14.8473 4.89737 14.7222 4.46438 14.4719 4.05201C14.1591 3.39222 13.6169 2.83552 12.9497 2.54686C12.5743 2.36129 12.2198 2.17572 11.7193 2.17572C11.5525 2.17572 11.1354 2.17572 11.1354 2.17572Z" />
<path d="M11.0104 27.3466C10.3683 27.3466 9.82147 27.1719 9.36977 26.8225C8.91806 26.4702 8.57289 25.9602 8.33426 25.2926C8.09562 24.6222 7.9763 23.8125 7.9763 22.8637C7.9763 21.9205 8.09562 21.1151 8.33426 20.4475C8.57573 19.777 8.92232 19.2656 9.37403 18.9134C9.82857 18.5583 10.374 18.3807 11.0104 18.3807C11.6468 18.3807 12.1908 18.5583 12.6425 18.9134C13.097 19.2656 13.4436 19.777 13.6823 20.4475C13.9237 21.1151 14.0445 21.9205 14.0445 22.8637C14.0445 23.8125 13.9252 24.6222 13.6865 25.2926C13.4479 25.9602 13.1027 26.4702 12.651 26.8225C12.1993 27.1719 11.6524 27.3466 11.0104 27.3466ZM11.0104 26.4091C11.6468 26.4091 12.1411 26.1023 12.4933 25.4887C12.8456 24.875 13.0218 24 13.0218 22.8637C13.0218 22.108 12.9408 21.4645 12.7789 20.9333C12.6198 20.402 12.3897 19.9972 12.0885 19.7188C11.7902 19.4404 11.4308 19.3012 11.0104 19.3012C10.3797 19.3012 9.88681 19.6122 9.5317 20.2344C9.17659 20.8537 8.99903 21.7301 8.99903 22.8637C8.99903 23.6193 9.07857 24.2614 9.23767 24.7898C9.39676 25.3182 9.62545 25.7202 9.92375 25.9958C10.2249 26.2713 10.5871 26.4091 11.0104 26.4091Z" />
</g>
<defs>
<clipPath id="clip0_28_5331">
<rect width="22" height="26"  transform="translate(0 0.959229)"/>
</clipPath>
</defs>
</svg>
